<svg xmlns="http://www.w3.org/2000/svg" xmlns:xlink="http://www.w3.org/1999/xlink" width="1123" zoomAndPan="magnify" viewBox="0 0 841.92 595.499987" height="794" preserveAspectRatio="xMidYMid meet" version="1.0"><defs><g/></defs><g fill="#000000" fill-opacity="1"><g transform="translate(30.868308, 198.471152)"><g><path d="M 20.265625 -41.375 C 26.972656 -41.375 32.097656 -39.632812 35.640625 -36.15625 C 39.179688 -32.6875 40.953125 -27.53125 40.953125 -20.6875 C 40.953125 -13.851562 39.179688 -8.695312 35.640625 -5.21875 C 32.097656 -1.738281 26.972656 0 20.265625 0 L 5.375 0 L 5.375 -41.375 Z M 19.78125 -6.875 C 24.039062 -6.875 27.226562 -7.960938 29.34375 -10.140625 C 31.457031 -12.316406 32.515625 -15.832031 32.515625 -20.6875 C 32.515625 -25.53125 31.457031 -29.039062 29.34375 -31.21875 C 27.226562 -33.40625 24.039062 -34.5 19.78125 -34.5 L 13.546875 -34.5 L 13.546875 -6.875 Z M 19.78125 -6.875 "/></g></g></g><g fill="#000000" fill-opacity="1"><g transform="translate(75.092846, 198.471152)"><g><path d="M 13.546875 -18.171875 L 13.546875 -6.84375 L 33.3125 -6.84375 L 33.3125 0 L 5.375 0 L 5.375 -41.375 L 32.859375 -41.375 L 32.859375 -34.515625 L 13.546875 -34.515625 L 13.546875 -24.84375 L 30.421875 -24.84375 L 30.421875 -18.171875 Z M 13.546875 -18.171875 "/></g></g></g><g fill="#000000" fill-opacity="1"><g transform="translate(110.659223, 198.471152)"><g><path d="M 18.34375 0.59375 C 15.46875 0.59375 12.910156 0.238281 10.671875 -0.46875 C 8.441406 -1.175781 6.582031 -2.101562 5.09375 -3.25 C 3.601562 -4.40625 2.460938 -5.671875 1.671875 -7.046875 L 6.171875 -12.53125 L 6.875 -12.53125 C 8.125 -10.6875 9.703125 -9.21875 11.609375 -8.125 C 13.523438 -7.03125 15.769531 -6.484375 18.34375 -6.484375 C 20.53125 -6.484375 22.175781 -6.941406 23.28125 -7.859375 C 24.394531 -8.785156 24.953125 -10.0625 24.953125 -11.6875 C 24.953125 -12.664062 24.773438 -13.484375 24.421875 -14.140625 C 24.066406 -14.804688 23.472656 -15.375 22.640625 -15.84375 C 21.804688 -16.3125 20.679688 -16.71875 19.265625 -17.0625 L 13.953125 -18.28125 C 10.234375 -19.125 7.460938 -20.53125 5.640625 -22.5 C 3.828125 -24.476562 2.921875 -27.039062 2.921875 -30.1875 C 2.921875 -32.53125 3.503906 -34.585938 4.671875 -36.359375 C 5.835938 -38.128906 7.535156 -39.503906 9.765625 -40.484375 C 12.003906 -41.472656 14.679688 -41.96875 17.796875 -41.96875 C 20.984375 -41.96875 23.710938 -41.546875 25.984375 -40.703125 C 28.265625 -39.867188 30.1875 -38.582031 31.75 -36.84375 L 27.703125 -31.296875 L 27 -31.296875 C 25.820312 -32.523438 24.476562 -33.441406 22.96875 -34.046875 C 21.46875 -34.660156 19.742188 -34.96875 17.796875 -34.96875 C 15.554688 -34.96875 13.847656 -34.570312 12.671875 -33.78125 C 11.503906 -32.988281 10.921875 -31.894531 10.921875 -30.5 C 10.921875 -29.195312 11.332031 -28.160156 12.15625 -27.390625 C 12.976562 -26.617188 14.394531 -26.015625 16.40625 -25.578125 L 21.84375 -24.453125 C 25.863281 -23.597656 28.78125 -22.15625 30.59375 -20.125 C 32.40625 -18.101562 33.3125 -15.460938 33.3125 -12.203125 C 33.3125 -9.609375 32.753906 -7.351562 31.640625 -5.4375 C 30.523438 -3.53125 28.84375 -2.046875 26.59375 -0.984375 C 24.351562 0.0664062 21.601562 0.59375 18.34375 0.59375 Z M 18.34375 0.59375 "/></g></g></g><g fill="#000000" fill-opacity="1"><g transform="translate(146.197298, 198.471152)"><g><path d="M 13.546875 0 L 5.375 0 L 5.375 -41.375 L 13.546875 -41.375 Z M 13.546875 0 "/></g></g></g><g fill="#000000" fill-opacity="1"><g transform="translate(165.154711, 198.471152)"><g><path d="M 20.09375 0.59375 C 16.632812 0.59375 13.644531 -0.191406 11.125 -1.765625 C 8.613281 -3.335938 6.671875 -5.710938 5.296875 -8.890625 C 3.929688 -12.078125 3.25 -16.007812 3.25 -20.6875 C 3.25 -25.40625 4.066406 -29.351562 5.703125 -32.53125 C 7.347656 -35.707031 9.628906 -38.070312 12.546875 -39.625 C 15.460938 -41.1875 18.84375 -41.96875 22.6875 -41.96875 C 26.65625 -41.96875 30.035156 -41.226562 32.828125 -39.75 C 35.617188 -38.28125 37.578125 -36.09375 38.703125 -33.1875 L 32.734375 -29.578125 L 32.03125 -29.59375 C 31.1875 -31.445312 29.992188 -32.796875 28.453125 -33.640625 C 26.910156 -34.492188 24.988281 -34.921875 22.6875 -34.921875 C 19.125 -34.921875 16.398438 -33.789062 14.515625 -31.53125 C 12.628906 -29.28125 11.6875 -25.664062 11.6875 -20.6875 C 11.6875 -15.6875 12.566406 -12.050781 14.328125 -9.78125 C 16.097656 -7.519531 18.707031 -6.390625 22.15625 -6.390625 C 25.132812 -6.390625 27.332031 -7.054688 28.75 -8.390625 C 30.164062 -9.734375 30.875 -11.738281 30.875 -14.40625 L 30.875 -16.1875 L 21.078125 -16.1875 L 21.078125 -22.84375 L 39 -22.84375 L 39 0 L 31.1875 0 L 31.1875 -5.546875 L 30.59375 -5.625 C 29.738281 -3.644531 28.445312 -2.113281 26.71875 -1.03125 C 25 0.0507812 22.789062 0.59375 20.09375 0.59375 Z M 20.09375 0.59375 "/></g></g></g><g fill="#000000" fill-opacity="1"><g transform="translate(208.304053, 198.471152)"><g><path d="M 13.296875 0 L 5.375 0 L 5.375 -41.375 L 14.75 -41.375 L 31.359375 -14.71875 L 32.09375 -14.828125 L 32.09375 -41.375 L 39.953125 -41.375 L 39.953125 0 L 31.578125 0 L 14 -28.46875 L 13.296875 -28.359375 Z M 13.296875 0 "/></g></g></g><g fill="#000000" fill-opacity="1"><g transform="translate(253.660388, 198.471152)"><g/></g></g><g fill="#000000" fill-opacity="1"><g transform="translate(267.326708, 198.471152)"><g><path d="M 39.703125 0 L 31.09375 0 L 27.984375 -9.53125 L 12.140625 -9.53125 L 9.03125 0 L 0.625 0 L 14.90625 -41.375 L 25.40625 -41.375 Z M 19.671875 -32.734375 L 14.34375 -16.40625 L 25.71875 -16.40625 L 20.375 -32.734375 Z M 19.671875 -32.734375 "/></g></g></g><g fill="#000000" fill-opacity="1"><g transform="translate(307.646596, 198.471152)"><g><path d="M 13.296875 0 L 5.375 0 L 5.375 -41.375 L 14.75 -41.375 L 31.359375 -14.71875 L 32.09375 -14.828125 L 32.09375 -41.375 L 39.953125 -41.375 L 39.953125 0 L 31.578125 0 L 14 -28.46875 L 13.296875 -28.359375 Z M 13.296875 0 "/></g></g></g><g fill="#000000" fill-opacity="1"><g transform="translate(353.00292, 198.471152)"><g><path d="M 20.265625 -41.375 C 26.972656 -41.375 32.097656 -39.632812 35.640625 -36.15625 C 39.179688 -32.6875 40.953125 -27.53125 40.953125 -20.6875 C 40.953125 -13.851562 39.179688 -8.695312 35.640625 -5.21875 C 32.097656 -1.738281 26.972656 0 20.265625 0 L 5.375 0 L 5.375 -41.375 Z M 19.78125 -6.875 C 24.039062 -6.875 27.226562 -7.960938 29.34375 -10.140625 C 31.457031 -12.316406 32.515625 -15.832031 32.515625 -20.6875 C 32.515625 -25.53125 31.457031 -29.039062 29.34375 -31.21875 C 27.226562 -33.40625 24.039062 -34.5 19.78125 -34.5 L 13.546875 -34.5 L 13.546875 -6.875 Z M 19.78125 -6.875 "/></g></g></g><g fill="#000000" fill-opacity="1"><g transform="translate(397.227458, 198.471152)"><g/></g></g><g fill="#000000" fill-opacity="1"><g transform="translate(410.893778, 198.471152)"><g><path d="M 20.265625 -41.375 C 26.972656 -41.375 32.097656 -39.632812 35.640625 -36.15625 C 39.179688 -32.6875 40.953125 -27.53125 40.953125 -20.6875 C 40.953125 -13.851562 39.179688 -8.695312 35.640625 -5.21875 C 32.097656 -1.738281 26.972656 0 20.265625 0 L 5.375 0 L 5.375 -41.375 Z M 19.78125 -6.875 C 24.039062 -6.875 27.226562 -7.960938 29.34375 -10.140625 C 31.457031 -12.316406 32.515625 -15.832031 32.515625 -20.6875 C 32.515625 -25.53125 31.457031 -29.039062 29.34375 -31.21875 C 27.226562 -33.40625 24.039062 -34.5 19.78125 -34.5 L 13.546875 -34.5 L 13.546875 -6.875 Z M 19.78125 -6.875 "/></g></g></g><g fill="#000000" fill-opacity="1"><g transform="translate(455.118316, 198.471152)"><g><path d="M 13.546875 -18.171875 L 13.546875 -6.84375 L 33.3125 -6.84375 L 33.3125 0 L 5.375 0 L 5.375 -41.375 L 32.859375 -41.375 L 32.859375 -34.515625 L 13.546875 -34.515625 L 13.546875 -24.84375 L 30.421875 -24.84375 L 30.421875 -18.171875 Z M 13.546875 -18.171875 "/></g></g></g><g fill="#000000" fill-opacity="1"><g transform="translate(490.684704, 198.471152)"><g><path d="M 24.59375 0 L 14.71875 0 L 0.734375 -41.375 L 9.421875 -41.375 L 19.46875 -10.53125 L 20.171875 -10.53125 L 30.078125 -41.375 L 38.546875 -41.375 Z M 24.59375 0 "/></g></g></g><g fill="#000000" fill-opacity="1"><g transform="translate(529.95765, 198.471152)"><g><path d="M 13.546875 -18.171875 L 13.546875 -6.84375 L 33.3125 -6.84375 L 33.3125 0 L 5.375 0 L 5.375 -41.375 L 32.859375 -41.375 L 32.859375 -34.515625 L 13.546875 -34.515625 L 13.546875 -24.84375 L 30.421875 -24.84375 L 30.421875 -18.171875 Z M 13.546875 -18.171875 "/></g></g></g><g fill="#000000" fill-opacity="1"><g transform="translate(565.524038, 198.471152)"><g><path d="M 13.546875 -41.375 L 13.546875 -6.84375 L 32.140625 -6.84375 L 32.140625 0 L 5.375 0 L 5.375 -41.375 Z M 13.546875 -41.375 "/></g></g></g><g fill="#000000" fill-opacity="1"><g transform="translate(599.024899, 198.471152)"><g><path d="M 22.546875 0.59375 C 18.753906 0.59375 15.410156 -0.175781 12.515625 -1.71875 C 9.617188 -3.269531 7.347656 -5.632812 5.703125 -8.8125 C 4.066406 -11.988281 3.25 -15.945312 3.25 -20.6875 C 3.25 -25.414062 4.066406 -29.367188 5.703125 -32.546875 C 7.347656 -35.734375 9.617188 -38.097656 12.515625 -39.640625 C 15.410156 -41.191406 18.753906 -41.96875 22.546875 -41.96875 C 26.335938 -41.96875 29.675781 -41.195312 32.5625 -39.65625 C 35.457031 -38.125 37.71875 -35.757812 39.34375 -32.5625 C 40.976562 -29.375 41.796875 -25.414062 41.796875 -20.6875 C 41.796875 -15.945312 40.976562 -11.984375 39.34375 -8.796875 C 37.71875 -5.609375 35.457031 -3.242188 32.5625 -1.703125 C 29.675781 -0.171875 26.335938 0.59375 22.546875 0.59375 Z M 22.546875 -6.515625 C 26.054688 -6.515625 28.734375 -7.640625 30.578125 -9.890625 C 32.429688 -12.140625 33.359375 -15.738281 33.359375 -20.6875 C 33.359375 -25.625 32.429688 -29.222656 30.578125 -31.484375 C 28.734375 -33.753906 26.054688 -34.890625 22.546875 -34.890625 C 19.023438 -34.890625 16.332031 -33.753906 14.46875 -31.484375 C 12.613281 -29.222656 11.6875 -25.625 11.6875 -20.6875 C 11.6875 -15.738281 12.613281 -12.140625 14.46875 -9.890625 C 16.332031 -7.640625 19.023438 -6.515625 22.546875 -6.515625 Z M 22.546875 -6.515625 "/></g></g></g><g fill="#000000" fill-opacity="1"><g transform="translate(644.098287, 198.471152)"><g><path d="M 21.359375 -41.375 C 24.328125 -41.375 26.863281 -40.828125 28.96875 -39.734375 C 31.070312 -38.648438 32.660156 -37.132812 33.734375 -35.1875 C 34.804688 -33.238281 35.34375 -30.96875 35.34375 -28.375 C 35.34375 -25.789062 34.804688 -23.523438 33.734375 -21.578125 C 32.660156 -19.640625 31.070312 -18.128906 28.96875 -17.046875 C 26.863281 -15.960938 24.328125 -15.421875 21.359375 -15.421875 L 13.546875 -15.421875 L 13.546875 0 L 5.375 0 L 5.375 -41.375 Z M 20.296875 -21.90625 C 24.835938 -21.90625 27.109375 -24.0625 27.109375 -28.375 C 27.109375 -32.71875 24.835938 -34.890625 20.296875 -34.890625 L 13.546875 -34.890625 L 13.546875 -21.90625 Z M 20.296875 -21.90625 "/></g></g></g><g fill="#000000" fill-opacity="1"><g transform="translate(681.899935, 198.471152)"><g/></g></g><g fill="#000000" fill-opacity="1"><g transform="translate(695.566255, 198.471152)"><g><path d="M 5.375 0 L 5.375 -41.375 L 23.03125 -41.375 C 25.582031 -41.375 27.738281 -40.972656 29.5 -40.171875 C 31.257812 -39.367188 32.59375 -38.222656 33.5 -36.734375 C 34.40625 -35.253906 34.859375 -33.507812 34.859375 -31.5 C 34.859375 -29.664062 34.414062 -28.050781 33.53125 -26.65625 C 32.644531 -25.257812 31.375 -24.132812 29.71875 -23.28125 L 29.71875 -22.6875 C 32.320312 -22.007812 34.328125 -20.773438 35.734375 -18.984375 C 37.148438 -17.191406 37.859375 -14.992188 37.859375 -12.390625 C 37.859375 -8.429688 36.664062 -5.375 34.28125 -3.21875 C 31.894531 -1.070312 28.351562 0 23.65625 0 Z M 21.34375 -24.875 C 25.144531 -24.875 27.046875 -26.59375 27.046875 -30.03125 C 27.046875 -31.78125 26.570312 -33.082031 25.625 -33.9375 C 24.6875 -34.800781 23.257812 -35.234375 21.34375 -35.234375 L 13.546875 -35.234375 L 13.546875 -24.875 Z M 22.84375 -6.484375 C 27.34375 -6.484375 29.59375 -8.53125 29.59375 -12.625 C 29.59375 -16.738281 27.34375 -18.796875 22.84375 -18.796875 L 13.546875 -18.796875 L 13.546875 -6.484375 Z M 22.84375 -6.484375 "/></g></g></g><g fill="#000000" fill-opacity="1"><g transform="translate(736.02761, 198.471152)"><g><path d="M 22.671875 0 L 14.484375 0 L 14.484375 -16.25 L 0.203125 -41.375 L 8.96875 -41.375 L 18.421875 -25.09375 L 19.125 -25.09375 L 28.375 -41.375 L 36.953125 -41.375 L 22.671875 -16.25 Z M 22.671875 0 "/></g></g></g><g fill="#000000" fill-opacity="1"><g transform="translate(773.178498, 198.471152)"><g><path d="M 7.984375 0.25 C 6.984375 0.25 6.097656 0.046875 5.328125 -0.359375 C 4.566406 -0.765625 3.984375 -1.320312 3.578125 -2.03125 C 3.171875 -2.75 2.96875 -3.5625 2.96875 -4.46875 C 2.96875 -5.375 3.171875 -6.1875 3.578125 -6.90625 C 3.984375 -7.625 4.566406 -8.1875 5.328125 -8.59375 C 6.097656 -9.007812 6.984375 -9.21875 7.984375 -9.21875 C 9.003906 -9.21875 9.894531 -9.015625 10.65625 -8.609375 C 11.414062 -8.210938 12 -7.65625 12.40625 -6.9375 C 12.8125 -6.21875 13.015625 -5.40625 13.015625 -4.5 C 13.015625 -3.125 12.554688 -1.988281 11.640625 -1.09375 C 10.722656 -0.195312 9.503906 0.25 7.984375 0.25 Z M 7.984375 -22.046875 C 6.984375 -22.046875 6.097656 -22.25 5.328125 -22.65625 C 4.566406 -23.0625 3.984375 -23.617188 3.578125 -24.328125 C 3.171875 -25.046875 2.96875 -25.859375 2.96875 -26.765625 C 2.96875 -27.671875 3.171875 -28.484375 3.578125 -29.203125 C 3.984375 -29.921875 4.566406 -30.484375 5.328125 -30.890625 C 6.097656 -31.304688 6.984375 -31.515625 7.984375 -31.515625 C 9.003906 -31.515625 9.894531 -31.3125 10.65625 -30.90625 C 11.414062 -30.507812 12 -29.953125 12.40625 -29.234375 C 12.8125 -28.515625 13.015625 -27.703125 13.015625 -26.796875 C 13.015625 -25.421875 12.554688 -24.285156 11.640625 -23.390625 C 10.722656 -22.492188 9.503906 -22.046875 7.984375 -22.046875 Z M 7.984375 -22.046875 "/></g></g></g><path fill="#000000" d="M 73.511719 257.296875 C 73.511719 257.960938 73.449219 258.617188 73.316406 259.269531 C 73.1875 259.921875 72.996094 260.554688 72.742188 261.167969 C 72.488281 261.78125 72.175781 262.363281 71.808594 262.917969 C 71.4375 263.46875 71.019531 263.980469 70.550781 264.449219 C 70.078125 264.917969 69.570312 265.339844 69.015625 265.707031 C 68.464844 266.078125 67.878906 266.390625 67.265625 266.644531 C 66.652344 266.898438 66.019531 267.089844 65.371094 267.21875 C 64.71875 267.347656 64.058594 267.414062 63.394531 267.414062 C 62.730469 267.414062 62.074219 267.347656 61.421875 267.21875 C 60.769531 267.089844 60.136719 266.898438 59.523438 266.644531 C 58.910156 266.390625 58.328125 266.078125 57.773438 265.707031 C 57.222656 265.339844 56.710938 264.917969 56.242188 264.449219 C 55.773438 263.980469 55.351562 263.46875 54.984375 262.917969 C 54.613281 262.363281 54.304688 261.78125 54.050781 261.167969 C 53.796875 260.554688 53.601562 259.921875 53.472656 259.269531 C 53.34375 258.617188 53.277344 257.960938 53.277344 257.296875 C 53.277344 256.632812 53.34375 255.976562 53.472656 255.324219 C 53.601562 254.671875 53.796875 254.039062 54.050781 253.425781 C 54.304688 252.8125 54.613281 252.230469 54.984375 251.675781 C 55.351562 251.125 55.773438 250.613281 56.242188 250.144531 C 56.710938 249.671875 57.222656 249.253906 57.773438 248.886719 C 58.328125 248.515625 58.910156 248.203125 59.523438 247.949219 C 60.136719 247.695312 60.769531 247.503906 61.421875 247.375 C 62.074219 247.246094 62.730469 247.179688 63.394531 247.179688 C 64.058594 247.179688 64.71875 247.246094 65.371094 247.375 C 66.019531 247.503906 66.652344 247.695312 67.265625 247.949219 C 67.878906 248.203125 68.464844 248.515625 69.015625 248.886719 C 69.570312 249.253906 70.078125 249.671875 70.550781 250.144531 C 71.019531 250.613281 71.4375 251.125 71.808594 251.675781 C 72.175781 252.230469 72.488281 252.8125 72.742188 253.425781 C 72.996094 254.039062 73.1875 254.671875 73.316406 255.324219 C 73.449219 255.976562 73.511719 256.632812 73.511719 257.296875 Z M 73.511719 257.296875 " fill-opacity="1" fill-rule="nonzero"/><g fill="#000000" fill-opacity="1"><g transform="translate(98.38193, 277.155082)"><g><path d="M 6.140625 0 L 6.140625 -40.65625 L 21.546875 -40.65625 C 24.054688 -40.65625 26.179688 -40.253906 27.921875 -39.453125 C 29.660156 -38.660156 30.96875 -37.523438 31.84375 -36.046875 C 32.726562 -34.578125 33.171875 -32.820312 33.171875 -30.78125 C 33.171875 -29.019531 32.691406 -27.425781 31.734375 -26 C 30.785156 -24.570312 29.421875 -23.460938 27.640625 -22.671875 L 27.640625 -22.078125 C 30.347656 -21.410156 32.398438 -20.195312 33.796875 -18.4375 C 35.203125 -16.675781 35.90625 -14.460938 35.90625 -11.796875 C 35.90625 -8.015625 34.796875 -5.101562 32.578125 -3.0625 C 30.359375 -1.019531 27.070312 0 22.71875 0 Z M 21.328125 -23.578125 C 23.566406 -23.578125 25.304688 -24.164062 26.546875 -25.34375 C 27.796875 -26.519531 28.421875 -28.140625 28.421875 -30.203125 C 28.421875 -32.367188 27.820312 -33.992188 26.625 -35.078125 C 25.425781 -36.160156 23.660156 -36.703125 21.328125 -36.703125 L 10.921875 -36.703125 L 10.921875 -23.578125 Z M 22.359375 -3.953125 C 28.140625 -3.953125 31.03125 -6.566406 31.03125 -11.796875 C 31.03125 -17.023438 28.140625 -19.640625 22.359375 -19.640625 L 10.921875 -19.640625 L 10.921875 -3.953125 Z M 22.359375 -3.953125 "/></g></g><g transform="translate(137.508744, 277.155082)"><g><path d="M 10.921875 0 L 6.140625 0 L 6.140625 -40.65625 L 10.921875 -40.65625 Z M 10.921875 0 "/></g></g><g transform="translate(154.611082, 277.155082)"><g><path d="M 17.765625 0.578125 C 15.210938 0.578125 12.921875 0.234375 10.890625 -0.453125 C 8.859375 -1.148438 7.164062 -2.0625 5.8125 -3.1875 C 4.457031 -4.320312 3.445312 -5.566406 2.78125 -6.921875 L 5.390625 -10.09375 L 6.09375 -10.09375 C 8.613281 -5.84375 12.503906 -3.71875 17.765625 -3.71875 C 20.828125 -3.71875 23.101562 -4.359375 24.59375 -5.640625 C 26.082031 -6.921875 26.828125 -8.703125 26.828125 -10.984375 C 26.828125 -12.316406 26.582031 -13.445312 26.09375 -14.375 C 25.601562 -15.300781 24.789062 -16.09375 23.65625 -16.75 C 22.53125 -17.414062 20.992188 -17.988281 19.046875 -18.46875 L 14.296875 -19.640625 C 10.753906 -20.484375 8.144531 -21.835938 6.46875 -23.703125 C 4.789062 -25.566406 3.953125 -27.925781 3.953125 -30.78125 C 3.953125 -32.800781 4.46875 -34.601562 5.5 -36.1875 C 6.539062 -37.78125 8.0625 -39.019531 10.0625 -39.90625 C 12.0625 -40.789062 14.453125 -41.234375 17.234375 -41.234375 C 20.296875 -41.234375 22.878906 -40.800781 24.984375 -39.9375 C 27.085938 -39.082031 28.769531 -37.789062 30.03125 -36.0625 L 27.703125 -32.921875 L 27 -32.921875 C 25.832031 -34.347656 24.453125 -35.394531 22.859375 -36.0625 C 21.265625 -36.726562 19.390625 -37.0625 17.234375 -37.0625 C 14.421875 -37.0625 12.296875 -36.515625 10.859375 -35.421875 C 9.421875 -34.328125 8.703125 -32.816406 8.703125 -30.890625 C 8.703125 -29.054688 9.226562 -27.597656 10.28125 -26.515625 C 11.34375 -25.429688 13.125 -24.59375 15.625 -24 L 20.5 -22.828125 C 24.445312 -21.898438 27.304688 -20.476562 29.078125 -18.5625 C 30.847656 -16.644531 31.734375 -14.191406 31.734375 -11.203125 C 31.734375 -8.910156 31.21875 -6.878906 30.1875 -5.109375 C 29.15625 -3.335938 27.59375 -1.945312 25.5 -0.9375 C 23.40625 0.0703125 20.828125 0.578125 17.765625 0.578125 Z M 17.765625 0.578125 "/></g></g><g transform="translate(189.455359, 277.155082)"><g><path d="M 32.0625 -24.171875 L 32.0625 -40.65625 L 36.8125 -40.65625 L 36.8125 0 L 32.0625 0 L 32.0625 -20.109375 L 10.921875 -20.109375 L 10.921875 0 L 6.140625 0 L 6.140625 -40.65625 L 10.921875 -40.65625 L 10.921875 -24.171875 Z M 32.0625 -24.171875 "/></g></g><g transform="translate(232.447579, 277.155082)"><g><path d="M 17.765625 0 L 11.515625 0 L 2.203125 -40.65625 L 6.921875 -40.65625 L 14.578125 -7.03125 L 15.265625 -7.03125 L 24.390625 -40.65625 L 28.8125 -40.65625 L 37.9375 -7.03125 L 38.625 -7.03125 L 46.296875 -40.65625 L 50.890625 -40.65625 L 41.609375 0 L 35.3125 0 L 26.828125 -30.78125 L 26.25 -30.78125 Z M 17.765625 0 "/></g></g><g transform="translate(285.53435, 277.155082)"><g><path d="M 36.59375 0 L 31.484375 0 L 27.71875 -11.15625 L 10.40625 -11.15625 L 6.625 0 L 1.609375 0 L 15.796875 -40.65625 L 22.421875 -40.65625 Z M 18.71875 -35.734375 L 11.734375 -15.15625 L 26.359375 -15.15625 L 19.40625 -35.734375 Z M 18.71875 -35.734375 "/></g></g><g transform="translate(323.743477, 277.155082)"><g/></g><g transform="translate(337.703435, 277.155082)"><g><path d="M 6.140625 0 L 6.140625 -40.65625 L 21.546875 -40.65625 C 24.054688 -40.65625 26.179688 -40.253906 27.921875 -39.453125 C 29.660156 -38.660156 30.96875 -37.523438 31.84375 -36.046875 C 32.726562 -34.578125 33.171875 -32.820312 33.171875 -30.78125 C 33.171875 -29.019531 32.691406 -27.425781 31.734375 -26 C 30.785156 -24.570312 29.421875 -23.460938 27.640625 -22.671875 L 27.640625 -22.078125 C 30.347656 -21.410156 32.398438 -20.195312 33.796875 -18.4375 C 35.203125 -16.675781 35.90625 -14.460938 35.90625 -11.796875 C 35.90625 -8.015625 34.796875 -5.101562 32.578125 -3.0625 C 30.359375 -1.019531 27.070312 0 22.71875 0 Z M 21.328125 -23.578125 C 23.566406 -23.578125 25.304688 -24.164062 26.546875 -25.34375 C 27.796875 -26.519531 28.421875 -28.140625 28.421875 -30.203125 C 28.421875 -32.367188 27.820312 -33.992188 26.625 -35.078125 C 25.425781 -36.160156 23.660156 -36.703125 21.328125 -36.703125 L 10.921875 -36.703125 L 10.921875 -23.578125 Z M 22.359375 -3.953125 C 28.140625 -3.953125 31.03125 -6.566406 31.03125 -11.796875 C 31.03125 -17.023438 28.140625 -19.640625 22.359375 -19.640625 L 10.921875 -19.640625 L 10.921875 -3.953125 Z M 22.359375 -3.953125 "/></g></g><g transform="translate(376.830248, 277.155082)"><g><path d="M 32.0625 -24.171875 L 32.0625 -40.65625 L 36.8125 -40.65625 L 36.8125 0 L 32.0625 0 L 32.0625 -20.109375 L 10.921875 -20.109375 L 10.921875 0 L 6.140625 0 L 6.140625 -40.65625 L 10.921875 -40.65625 L 10.921875 -24.171875 Z M 32.0625 -24.171875 "/></g></g><g transform="translate(419.822468, 277.155082)"><g><path d="M 20.96875 0.578125 C 15.976562 0.578125 12.203125 -0.6875 9.640625 -3.21875 C 7.085938 -5.75 5.8125 -9.492188 5.8125 -14.453125 L 5.8125 -40.65625 L 10.5625 -40.65625 L 10.5625 -14.515625 C 10.5625 -10.953125 11.421875 -8.28125 13.140625 -6.5 C 14.859375 -4.726562 17.46875 -3.84375 20.96875 -3.84375 C 27.90625 -3.84375 31.375 -7.398438 31.375 -14.515625 L 31.375 -40.65625 L 36.125 -40.65625 L 36.125 -14.453125 C 36.125 -9.492188 34.84375 -5.75 32.28125 -3.21875 C 29.726562 -0.6875 25.957031 0.578125 20.96875 0.578125 Z M 20.96875 0.578125 "/></g></g><g transform="translate(461.73015, 277.155082)"><g><path d="M 17.765625 0.578125 C 15.210938 0.578125 12.921875 0.234375 10.890625 -0.453125 C 8.859375 -1.148438 7.164062 -2.0625 5.8125 -3.1875 C 4.457031 -4.320312 3.445312 -5.566406 2.78125 -6.921875 L 5.390625 -10.09375 L 6.09375 -10.09375 C 8.613281 -5.84375 12.503906 -3.71875 17.765625 -3.71875 C 20.828125 -3.71875 23.101562 -4.359375 24.59375 -5.640625 C 26.082031 -6.921875 26.828125 -8.703125 26.828125 -10.984375 C 26.828125 -12.316406 26.582031 -13.445312 26.09375 -14.375 C 25.601562 -15.300781 24.789062 -16.09375 23.65625 -16.75 C 22.53125 -17.414062 20.992188 -17.988281 19.046875 -18.46875 L 14.296875 -19.640625 C 10.753906 -20.484375 8.144531 -21.835938 6.46875 -23.703125 C 4.789062 -25.566406 3.953125 -27.925781 3.953125 -30.78125 C 3.953125 -32.800781 4.46875 -34.601562 5.5 -36.1875 C 6.539062 -37.78125 8.0625 -39.019531 10.0625 -39.90625 C 12.0625 -40.789062 14.453125 -41.234375 17.234375 -41.234375 C 20.296875 -41.234375 22.878906 -40.800781 24.984375 -39.9375 C 27.085938 -39.082031 28.769531 -37.789062 30.03125 -36.0625 L 27.703125 -32.921875 L 27 -32.921875 C 25.832031 -34.347656 24.453125 -35.394531 22.859375 -36.0625 C 21.265625 -36.726562 19.390625 -37.0625 17.234375 -37.0625 C 14.421875 -37.0625 12.296875 -36.515625 10.859375 -35.421875 C 9.421875 -34.328125 8.703125 -32.816406 8.703125 -30.890625 C 8.703125 -29.054688 9.226562 -27.597656 10.28125 -26.515625 C 11.34375 -25.429688 13.125 -24.59375 15.625 -24 L 20.5 -22.828125 C 24.445312 -21.898438 27.304688 -20.476562 29.078125 -18.5625 C 30.847656 -16.644531 31.734375 -14.191406 31.734375 -11.203125 C 31.734375 -8.910156 31.21875 -6.878906 30.1875 -5.109375 C 29.15625 -3.335938 27.59375 -1.945312 25.5 -0.9375 C 23.40625 0.0703125 20.828125 0.578125 17.765625 0.578125 Z M 17.765625 0.578125 "/></g></g><g transform="translate(496.574426, 277.155082)"><g><path d="M 32.0625 -24.171875 L 32.0625 -40.65625 L 36.8125 -40.65625 L 36.8125 0 L 32.0625 0 L 32.0625 -20.109375 L 10.921875 -20.109375 L 10.921875 0 L 6.140625 0 L 6.140625 -40.65625 L 10.921875 -40.65625 L 10.921875 -24.171875 Z M 32.0625 -24.171875 "/></g></g><g transform="translate(539.566646, 277.155082)"><g><path d="M 36.59375 0 L 31.484375 0 L 27.71875 -11.15625 L 10.40625 -11.15625 L 6.625 0 L 1.609375 0 L 15.796875 -40.65625 L 22.421875 -40.65625 Z M 18.71875 -35.734375 L 11.734375 -15.15625 L 26.359375 -15.15625 L 19.40625 -35.734375 Z M 18.71875 -35.734375 "/></g></g><g transform="translate(577.775773, 277.155082)"><g><path d="M 10.8125 0 L 6.140625 0 L 6.140625 -40.65625 L 12.015625 -40.65625 L 31.84375 -9.59375 L 32.53125 -9.703125 L 32.53125 -40.65625 L 37.1875 -40.65625 L 37.1875 0 L 32.171875 0 L 11.515625 -33.234375 L 10.8125 -33.125 Z M 10.8125 0 "/></g></g><g transform="translate(621.129506, 277.155082)"><g/></g><g transform="translate(635.089464, 277.155082)"><g><path d="M 20.6875 -40.65625 C 23.488281 -40.65625 25.890625 -40.15625 27.890625 -39.15625 C 29.890625 -38.15625 31.410156 -36.722656 32.453125 -34.859375 C 33.503906 -32.992188 34.03125 -30.800781 34.03125 -28.28125 C 34.03125 -25.757812 33.503906 -23.570312 32.453125 -21.71875 C 31.410156 -19.863281 29.890625 -18.429688 27.890625 -17.421875 C 25.890625 -16.410156 23.488281 -15.90625 20.6875 -15.90625 L 10.921875 -15.90625 L 10.921875 0 L 6.140625 0 L 6.140625 -40.65625 Z M 20.546875 -20 C 26.203125 -20 29.03125 -22.757812 29.03125 -28.28125 C 29.03125 -33.820312 26.203125 -36.59375 20.546875 -36.59375 L 10.921875 -36.59375 L 10.921875 -20 Z M 20.546875 -20 "/></g></g><g transform="translate(672.158435, 277.155082)"><g><path d="M 36.59375 0 L 31.484375 0 L 27.71875 -11.15625 L 10.40625 -11.15625 L 6.625 0 L 1.609375 0 L 15.796875 -40.65625 L 22.421875 -40.65625 Z M 18.71875 -35.734375 L 11.734375 -15.15625 L 26.359375 -15.15625 L 19.40625 -35.734375 Z M 18.71875 -35.734375 "/></g></g><g transform="translate(710.367562, 277.155082)"><g><path d="M 10.921875 -40.65625 L 10.921875 -3.953125 L 30.5 -3.953125 L 30.5 0 L 6.140625 0 L 6.140625 -40.65625 Z M 10.921875 -40.65625 "/></g></g><g transform="translate(742.597823, 277.155082)"><g><path d="M 36.59375 0 L 31.484375 0 L 27.71875 -11.15625 L 10.40625 -11.15625 L 6.625 0 L 1.609375 0 L 15.796875 -40.65625 L 22.421875 -40.65625 Z M 18.71875 -35.734375 L 11.734375 -15.15625 L 26.359375 -15.15625 L 19.40625 -35.734375 Z M 18.71875 -35.734375 "/></g></g><g transform="translate(780.80695, 277.155082)"><g><path d="M 6.140625 0 L 6.140625 -40.65625 L 20.90625 -40.65625 C 23.632812 -40.65625 25.925781 -40.203125 27.78125 -39.296875 C 29.632812 -38.398438 31.023438 -37.128906 31.953125 -35.484375 C 32.878906 -33.847656 33.34375 -31.910156 33.34375 -29.671875 C 33.34375 -27.148438 32.710938 -25.066406 31.453125 -23.421875 C 30.191406 -21.785156 28.226562 -20.5625 25.5625 -19.75 L 25.5625 -19.15625 C 26.875 -18.632812 27.945312 -17.816406 28.78125 -16.703125 C 29.613281 -15.597656 30.382812 -13.941406 31.09375 -11.734375 L 34.84375 0 L 29.921875 0 L 25.859375 -12.4375 C 25.378906 -13.894531 24.820312 -15.039062 24.1875 -15.875 C 23.5625 -16.707031 22.765625 -17.3125 21.796875 -17.6875 C 20.835938 -18.0625 19.613281 -18.25 18.125 -18.25 L 10.921875 -18.25 L 10.921875 0 Z M 20.796875 -22.296875 C 23.335938 -22.296875 25.226562 -22.882812 26.46875 -24.0625 C 27.71875 -25.238281 28.34375 -27.035156 28.34375 -29.453125 C 28.34375 -31.859375 27.71875 -33.648438 26.46875 -34.828125 C 25.226562 -36.003906 23.335938 -36.59375 20.796875 -36.59375 L 10.921875 -36.59375 L 10.921875 -22.296875 Z M 20.796875 -22.296875 "/></g></g></g><path fill="#000000" d="M 73.511719 336.730469 C 73.511719 337.394531 73.449219 338.050781 73.316406 338.703125 C 73.1875 339.355469 72.996094 339.988281 72.742188 340.601562 C 72.488281 341.214844 72.175781 341.796875 71.808594 342.351562 C 71.4375 342.902344 71.019531 343.414062 70.550781 343.882812 C 70.078125 344.351562 69.570312 344.773438 69.015625 345.140625 C 68.464844 345.511719 67.878906 345.820312 67.265625 346.078125 C 66.652344 346.332031 66.019531 346.523438 65.371094 346.652344 C 64.71875 346.78125 64.058594 346.847656 63.394531 346.847656 C 62.730469 346.847656 62.074219 346.78125 61.421875 346.652344 C 60.769531 346.523438 60.136719 346.332031 59.523438 346.078125 C 58.910156 345.820312 58.328125 345.511719 57.773438 345.140625 C 57.222656 344.773438 56.710938 344.351562 56.242188 343.882812 C 55.773438 343.414062 55.351562 342.902344 54.984375 342.351562 C 54.613281 341.796875 54.304688 341.214844 54.050781 340.601562 C 53.796875 339.988281 53.601562 339.355469 53.472656 338.703125 C 53.34375 338.050781 53.277344 337.394531 53.277344 336.730469 C 53.277344 336.066406 53.34375 335.40625 53.472656 334.757812 C 53.601562 334.105469 53.796875 333.472656 54.050781 332.859375 C 54.304688 332.246094 54.613281 331.660156 54.984375 331.109375 C 55.351562 330.558594 55.773438 330.046875 56.242188 329.578125 C 56.710938 329.105469 57.222656 328.6875 57.773438 328.320312 C 58.328125 327.949219 58.910156 327.636719 59.523438 327.382812 C 60.136719 327.128906 60.769531 326.9375 61.421875 326.808594 C 62.074219 326.679688 62.730469 326.613281 63.394531 326.613281 C 64.058594 326.613281 64.71875 326.679688 65.371094 326.808594 C 66.019531 326.9375 66.652344 327.128906 67.265625 327.382812 C 67.878906 327.636719 68.464844 327.949219 69.015625 328.320312 C 69.570312 328.6875 70.078125 329.105469 70.550781 329.578125 C 71.019531 330.046875 71.4375 330.558594 71.808594 331.109375 C 72.175781 331.660156 72.488281 332.246094 72.742188 332.859375 C 72.996094 333.472656 73.1875 334.105469 73.316406 334.757812 C 73.449219 335.40625 73.511719 336.066406 73.511719 336.730469 Z M 73.511719 336.730469 " fill-opacity="1" fill-rule="nonzero"/><g fill="#000000" fill-opacity="1"><g transform="translate(98.38193, 356.588382)"><g><path d="M 6.140625 0 L 6.140625 -40.65625 L 21.546875 -40.65625 C 24.054688 -40.65625 26.179688 -40.253906 27.921875 -39.453125 C 29.660156 -38.660156 30.96875 -37.523438 31.84375 -36.046875 C 32.726562 -34.578125 33.171875 -32.820312 33.171875 -30.78125 C 33.171875 -29.019531 32.691406 -27.425781 31.734375 -26 C 30.785156 -24.570312 29.421875 -23.460938 27.640625 -22.671875 L 27.640625 -22.078125 C 30.347656 -21.410156 32.398438 -20.195312 33.796875 -18.4375 C 35.203125 -16.675781 35.90625 -14.460938 35.90625 -11.796875 C 35.90625 -8.015625 34.796875 -5.101562 32.578125 -3.0625 C 30.359375 -1.019531 27.070312 0 22.71875 0 Z M 21.328125 -23.578125 C 23.566406 -23.578125 25.304688 -24.164062 26.546875 -25.34375 C 27.796875 -26.519531 28.421875 -28.140625 28.421875 -30.203125 C 28.421875 -32.367188 27.820312 -33.992188 26.625 -35.078125 C 25.425781 -36.160156 23.660156 -36.703125 21.328125 -36.703125 L 10.921875 -36.703125 L 10.921875 -23.578125 Z M 22.359375 -3.953125 C 28.140625 -3.953125 31.03125 -6.566406 31.03125 -11.796875 C 31.03125 -17.023438 28.140625 -19.640625 22.359375 -19.640625 L 10.921875 -19.640625 L 10.921875 -3.953125 Z M 22.359375 -3.953125 "/></g></g><g transform="translate(137.508744, 356.588382)"><g><path d="M 6.140625 0 L 6.140625 -40.65625 L 20.90625 -40.65625 C 23.632812 -40.65625 25.925781 -40.203125 27.78125 -39.296875 C 29.632812 -38.398438 31.023438 -37.128906 31.953125 -35.484375 C 32.878906 -33.847656 33.34375 -31.910156 33.34375 -29.671875 C 33.34375 -27.148438 32.710938 -25.066406 31.453125 -23.421875 C 30.191406 -21.785156 28.226562 -20.5625 25.5625 -19.75 L 25.5625 -19.15625 C 26.875 -18.632812 27.945312 -17.816406 28.78125 -16.703125 C 29.613281 -15.597656 30.382812 -13.941406 31.09375 -11.734375 L 34.84375 0 L 29.921875 0 L 25.859375 -12.4375 C 25.378906 -13.894531 24.820312 -15.039062 24.1875 -15.875 C 23.5625 -16.707031 22.765625 -17.3125 21.796875 -17.6875 C 20.835938 -18.0625 19.613281 -18.25 18.125 -18.25 L 10.921875 -18.25 L 10.921875 0 Z M 20.796875 -22.296875 C 23.335938 -22.296875 25.226562 -22.882812 26.46875 -24.0625 C 27.71875 -25.238281 28.34375 -27.035156 28.34375 -29.453125 C 28.34375 -31.859375 27.71875 -33.648438 26.46875 -34.828125 C 25.226562 -36.003906 23.335938 -36.59375 20.796875 -36.59375 L 10.921875 -36.59375 L 10.921875 -22.296875 Z M 20.796875 -22.296875 "/></g></g><g transform="translate(175.161697, 356.588382)"><g><path d="M 36.59375 0 L 31.484375 0 L 27.71875 -11.15625 L 10.40625 -11.15625 L 6.625 0 L 1.609375 0 L 15.796875 -40.65625 L 22.421875 -40.65625 Z M 18.71875 -35.734375 L 11.734375 -15.15625 L 26.359375 -15.15625 L 19.40625 -35.734375 Z M 18.71875 -35.734375 "/></g></g><g transform="translate(213.370824, 356.588382)"><g><path d="M 13.4375 0.578125 C 11.414062 0.578125 9.5625 0.28125 7.875 -0.3125 C 6.1875 -0.914062 4.757812 -1.738281 3.59375 -2.78125 C 2.4375 -3.820312 1.59375 -4.972656 1.0625 -6.234375 L 3.53125 -9.484375 L 4.234375 -9.484375 C 5.046875 -7.742188 6.242188 -6.367188 7.828125 -5.359375 C 9.410156 -4.347656 11.28125 -3.84375 13.4375 -3.84375 C 15.175781 -3.84375 16.59375 -4.125 17.6875 -4.6875 C 18.78125 -5.25 19.597656 -6.179688 20.140625 -7.484375 C 20.691406 -8.796875 20.96875 -10.566406 20.96875 -12.796875 L 20.96875 -40.65625 L 25.71875 -40.65625 L 25.71875 -12.703125 C 25.71875 -8.109375 24.691406 -4.742188 22.640625 -2.609375 C 20.597656 -0.484375 17.53125 0.578125 13.4375 0.578125 Z M 13.4375 0.578125 "/></g></g><g transform="translate(244.878059, 356.588382)"><g><path d="M 36.59375 0 L 31.484375 0 L 27.71875 -11.15625 L 10.40625 -11.15625 L 6.625 0 L 1.609375 0 L 15.796875 -40.65625 L 22.421875 -40.65625 Z M 18.71875 -35.734375 L 11.734375 -15.15625 L 26.359375 -15.15625 L 19.40625 -35.734375 Z M 18.71875 -35.734375 "/></g></g><g transform="translate(283.087186, 356.588382)"><g><path d="M 21.390625 0.578125 C 17.972656 0.578125 14.960938 -0.195312 12.359375 -1.75 C 9.753906 -3.3125 7.71875 -5.65625 6.25 -8.78125 C 4.789062 -11.914062 4.0625 -15.765625 4.0625 -20.328125 C 4.0625 -24.890625 4.84375 -28.734375 6.40625 -31.859375 C 7.976562 -34.992188 10.15625 -37.335938 12.9375 -38.890625 C 15.71875 -40.453125 18.921875 -41.234375 22.546875 -41.234375 C 26.441406 -41.234375 29.640625 -40.535156 32.140625 -39.140625 C 34.648438 -37.742188 36.421875 -35.65625 37.453125 -32.875 L 34.34375 -31.03125 L 33.65625 -31.03125 C 32.59375 -33.144531 31.160156 -34.660156 29.359375 -35.578125 C 27.566406 -36.492188 25.296875 -36.953125 22.546875 -36.953125 C 13.628906 -36.953125 9.171875 -31.410156 9.171875 -20.328125 C 9.171875 -14.566406 10.289062 -10.359375 12.53125 -7.703125 C 14.78125 -5.046875 17.925781 -3.71875 21.96875 -3.71875 C 25.675781 -3.71875 28.453125 -4.5625 30.296875 -6.25 C 32.140625 -7.9375 33.0625 -10.597656 33.0625 -14.234375 L 33.0625 -17.828125 L 21.5 -17.828125 L 21.5 -21.65625 L 37.703125 -21.65625 L 37.703125 0 L 33.28125 0 L 33.28125 -5.453125 L 32.703125 -5.59375 C 31.628906 -3.5 30.128906 -1.945312 28.203125 -0.9375 C 26.285156 0.0703125 24.015625 0.578125 21.390625 0.578125 Z M 21.390625 0.578125 "/></g></g><g transform="translate(325.356381, 356.588382)"><g><path d="M 22.296875 0.578125 C 18.773438 0.578125 15.640625 -0.179688 12.890625 -1.703125 C 10.148438 -3.222656 7.992188 -5.539062 6.421875 -8.65625 C 4.847656 -11.78125 4.0625 -15.671875 4.0625 -20.328125 C 4.0625 -24.984375 4.847656 -28.875 6.421875 -32 C 7.992188 -35.125 10.148438 -37.441406 12.890625 -38.953125 C 15.640625 -40.472656 18.773438 -41.234375 22.296875 -41.234375 C 25.828125 -41.234375 28.960938 -40.472656 31.703125 -38.953125 C 34.441406 -37.441406 36.597656 -35.125 38.171875 -32 C 39.753906 -28.875 40.546875 -24.984375 40.546875 -20.328125 C 40.546875 -15.671875 39.753906 -11.78125 38.171875 -8.65625 C 36.597656 -5.539062 34.441406 -3.222656 31.703125 -1.703125 C 28.960938 -0.179688 25.828125 0.578125 22.296875 0.578125 Z M 22.296875 -3.84375 C 26.523438 -3.84375 29.769531 -5.160156 32.03125 -7.796875 C 34.289062 -10.441406 35.421875 -14.617188 35.421875 -20.328125 C 35.421875 -26.035156 34.289062 -30.207031 32.03125 -32.84375 C 29.769531 -35.488281 26.523438 -36.8125 22.296875 -36.8125 C 13.546875 -36.8125 9.171875 -31.316406 9.171875 -20.328125 C 9.171875 -9.335938 13.546875 -3.84375 22.296875 -3.84375 Z M 22.296875 -3.84375 "/></g></g><g transform="translate(369.961504, 356.588382)"><g><path d="M 20.6875 -40.65625 C 23.488281 -40.65625 25.890625 -40.15625 27.890625 -39.15625 C 29.890625 -38.15625 31.410156 -36.722656 32.453125 -34.859375 C 33.503906 -32.992188 34.03125 -30.800781 34.03125 -28.28125 C 34.03125 -25.757812 33.503906 -23.570312 32.453125 -21.71875 C 31.410156 -19.863281 29.890625 -18.429688 27.890625 -17.421875 C 25.890625 -16.410156 23.488281 -15.90625 20.6875 -15.90625 L 10.921875 -15.90625 L 10.921875 0 L 6.140625 0 L 6.140625 -40.65625 Z M 20.546875 -20 C 26.203125 -20 29.03125 -22.757812 29.03125 -28.28125 C 29.03125 -33.820312 26.203125 -36.59375 20.546875 -36.59375 L 10.921875 -36.59375 L 10.921875 -20 Z M 20.546875 -20 "/></g></g><g transform="translate(407.030476, 356.588382)"><g><path d="M 36.59375 0 L 31.484375 0 L 27.71875 -11.15625 L 10.40625 -11.15625 L 6.625 0 L 1.609375 0 L 15.796875 -40.65625 L 22.421875 -40.65625 Z M 18.71875 -35.734375 L 11.734375 -15.15625 L 26.359375 -15.15625 L 19.40625 -35.734375 Z M 18.71875 -35.734375 "/></g></g><g transform="translate(445.239603, 356.588382)"><g><path d="M 10.921875 -40.65625 L 10.921875 -3.953125 L 30.5 -3.953125 L 30.5 0 L 6.140625 0 L 6.140625 -40.65625 Z M 10.921875 -40.65625 "/></g></g><g transform="translate(477.469863, 356.588382)"><g/></g><g transform="translate(491.429821, 356.588382)"><g><path d="M 19.296875 -40.65625 C 23.410156 -40.65625 26.945312 -39.914062 29.90625 -38.4375 C 32.863281 -36.96875 35.144531 -34.722656 36.75 -31.703125 C 38.351562 -28.679688 39.15625 -24.890625 39.15625 -20.328125 C 39.15625 -15.765625 38.351562 -11.972656 36.75 -8.953125 C 35.144531 -5.929688 32.863281 -3.679688 29.90625 -2.203125 C 26.945312 -0.734375 23.410156 0 19.296875 0 L 6.140625 0 L 6.140625 -40.65625 Z M 18.828125 -4.0625 C 22.222656 -4.0625 25.03125 -4.585938 27.25 -5.640625 C 29.476562 -6.703125 31.164062 -8.425781 32.3125 -10.8125 C 33.457031 -13.207031 34.03125 -16.378906 34.03125 -20.328125 C 34.03125 -24.296875 33.457031 -27.46875 32.3125 -29.84375 C 31.164062 -32.226562 29.476562 -33.945312 27.25 -35 C 25.03125 -36.0625 22.222656 -36.59375 18.828125 -36.59375 L 10.921875 -36.59375 L 10.921875 -4.0625 Z M 18.828125 -4.0625 "/></g></g><g transform="translate(534.64451, 356.588382)"><g><path d="M 36.59375 0 L 31.484375 0 L 27.71875 -11.15625 L 10.40625 -11.15625 L 6.625 0 L 1.609375 0 L 15.796875 -40.65625 L 22.421875 -40.65625 Z M 18.71875 -35.734375 L 11.734375 -15.15625 L 26.359375 -15.15625 L 19.40625 -35.734375 Z M 18.71875 -35.734375 "/></g></g><g transform="translate(572.853638, 356.588382)"><g><path d="M 17.765625 0.578125 C 15.210938 0.578125 12.921875 0.234375 10.890625 -0.453125 C 8.859375 -1.148438 7.164062 -2.0625 5.8125 -3.1875 C 4.457031 -4.320312 3.445312 -5.566406 2.78125 -6.921875 L 5.390625 -10.09375 L 6.09375 -10.09375 C 8.613281 -5.84375 12.503906 -3.71875 17.765625 -3.71875 C 20.828125 -3.71875 23.101562 -4.359375 24.59375 -5.640625 C 26.082031 -6.921875 26.828125 -8.703125 26.828125 -10.984375 C 26.828125 -12.316406 26.582031 -13.445312 26.09375 -14.375 C 25.601562 -15.300781 24.789062 -16.09375 23.65625 -16.75 C 22.53125 -17.414062 20.992188 -17.988281 19.046875 -18.46875 L 14.296875 -19.640625 C 10.753906 -20.484375 8.144531 -21.835938 6.46875 -23.703125 C 4.789062 -25.566406 3.953125 -27.925781 3.953125 -30.78125 C 3.953125 -32.800781 4.46875 -34.601562 5.5 -36.1875 C 6.539062 -37.78125 8.0625 -39.019531 10.0625 -39.90625 C 12.0625 -40.789062 14.453125 -41.234375 17.234375 -41.234375 C 20.296875 -41.234375 22.878906 -40.800781 24.984375 -39.9375 C 27.085938 -39.082031 28.769531 -37.789062 30.03125 -36.0625 L 27.703125 -32.921875 L 27 -32.921875 C 25.832031 -34.347656 24.453125 -35.394531 22.859375 -36.0625 C 21.265625 -36.726562 19.390625 -37.0625 17.234375 -37.0625 C 14.421875 -37.0625 12.296875 -36.515625 10.859375 -35.421875 C 9.421875 -34.328125 8.703125 -32.816406 8.703125 -30.890625 C 8.703125 -29.054688 9.226562 -27.597656 10.28125 -26.515625 C 11.34375 -25.429688 13.125 -24.59375 15.625 -24 L 20.5 -22.828125 C 24.445312 -21.898438 27.304688 -20.476562 29.078125 -18.5625 C 30.847656 -16.644531 31.734375 -14.191406 31.734375 -11.203125 C 31.734375 -8.910156 31.21875 -6.878906 30.1875 -5.109375 C 29.15625 -3.335938 27.59375 -1.945312 25.5 -0.9375 C 23.40625 0.0703125 20.828125 0.578125 17.765625 0.578125 Z M 17.765625 0.578125 "/></g></g></g><path fill="#000000" d="M 73.511719 416.164062 C 73.511719 416.828125 73.449219 417.484375 73.316406 418.136719 C 73.1875 418.789062 72.996094 419.421875 72.742188 420.035156 C 72.488281 420.648438 72.175781 421.230469 71.808594 421.785156 C 71.4375 422.335938 71.019531 422.847656 70.550781 423.316406 C 70.078125 423.785156 69.570312 424.207031 69.015625 424.574219 C 68.464844 424.945312 67.878906 425.253906 67.265625 425.507812 C 66.652344 425.765625 66.019531 425.957031 65.371094 426.085938 C 64.71875 426.214844 64.058594 426.28125 63.394531 426.28125 C 62.730469 426.28125 62.074219 426.214844 61.421875 426.085938 C 60.769531 425.957031 60.136719 425.765625 59.523438 425.507812 C 58.910156 425.253906 58.328125 424.945312 57.773438 424.574219 C 57.222656 424.207031 56.710938 423.785156 56.242188 423.316406 C 55.773438 422.847656 55.351562 422.335938 54.984375 421.785156 C 54.613281 421.230469 54.304688 420.648438 54.050781 420.035156 C 53.796875 419.421875 53.601562 418.789062 53.472656 418.136719 C 53.34375 417.484375 53.277344 416.828125 53.277344 416.164062 C 53.277344 415.5 53.34375 414.839844 53.472656 414.191406 C 53.601562 413.539062 53.796875 412.90625 54.050781 412.292969 C 54.304688 411.679688 54.613281 411.09375 54.984375 410.542969 C 55.351562 409.992188 55.773438 409.480469 56.242188 409.011719 C 56.710938 408.539062 57.222656 408.121094 57.773438 407.75 C 58.328125 407.382812 58.910156 407.070312 59.523438 406.816406 C 60.136719 406.5625 60.769531 406.371094 61.421875 406.242188 C 62.074219 406.113281 62.730469 406.046875 63.394531 406.046875 C 64.058594 406.046875 64.71875 406.113281 65.371094 406.242188 C 66.019531 406.371094 66.652344 406.5625 67.265625 406.816406 C 67.878906 407.070312 68.464844 407.382812 69.015625 407.75 C 69.570312 408.121094 70.078125 408.539062 70.550781 409.011719 C 71.019531 409.480469 71.4375 409.992188 71.808594 410.542969 C 72.175781 411.09375 72.488281 411.679688 72.742188 412.292969 C 72.996094 412.90625 73.1875 413.539062 73.316406 414.191406 C 73.449219 414.839844 73.511719 415.5 73.511719 416.164062 Z M 73.511719 416.164062 " fill-opacity="1" fill-rule="nonzero"/><g fill="#000000" fill-opacity="1"><g transform="translate(98.38193, 436.021683)"><g><path d="M 6.140625 0 L 6.140625 -40.65625 L 20.90625 -40.65625 C 23.632812 -40.65625 25.925781 -40.203125 27.78125 -39.296875 C 29.632812 -38.398438 31.023438 -37.128906 31.953125 -35.484375 C 32.878906 -33.847656 33.34375 -31.910156 33.34375 -29.671875 C 33.34375 -27.148438 32.710938 -25.066406 31.453125 -23.421875 C 30.191406 -21.785156 28.226562 -20.5625 25.5625 -19.75 L 25.5625 -19.15625 C 26.875 -18.632812 27.945312 -17.816406 28.78125 -16.703125 C 29.613281 -15.597656 30.382812 -13.941406 31.09375 -11.734375 L 34.84375 0 L 29.921875 0 L 25.859375 -12.4375 C 25.378906 -13.894531 24.820312 -15.039062 24.1875 -15.875 C 23.5625 -16.707031 22.765625 -17.3125 21.796875 -17.6875 C 20.835938 -18.0625 19.613281 -18.25 18.125 -18.25 L 10.921875 -18.25 L 10.921875 0 Z M 20.796875 -22.296875 C 23.335938 -22.296875 25.226562 -22.882812 26.46875 -24.0625 C 27.71875 -25.238281 28.34375 -27.035156 28.34375 -29.453125 C 28.34375 -31.859375 27.71875 -33.648438 26.46875 -34.828125 C 25.226562 -36.003906 23.335938 -36.59375 20.796875 -36.59375 L 10.921875 -36.59375 L 10.921875 -22.296875 Z M 20.796875 -22.296875 "/></g></g><g transform="translate(136.034883, 436.021683)"><g><path d="M 22.296875 0.578125 C 18.773438 0.578125 15.640625 -0.179688 12.890625 -1.703125 C 10.148438 -3.222656 7.992188 -5.539062 6.421875 -8.65625 C 4.847656 -11.78125 4.0625 -15.671875 4.0625 -20.328125 C 4.0625 -24.984375 4.847656 -28.875 6.421875 -32 C 7.992188 -35.125 10.148438 -37.441406 12.890625 -38.953125 C 15.640625 -40.472656 18.773438 -41.234375 22.296875 -41.234375 C 25.828125 -41.234375 28.960938 -40.472656 31.703125 -38.953125 C 34.441406 -37.441406 36.597656 -35.125 38.171875 -32 C 39.753906 -28.875 40.546875 -24.984375 40.546875 -20.328125 C 40.546875 -15.671875 39.753906 -11.78125 38.171875 -8.65625 C 36.597656 -5.539062 34.441406 -3.222656 31.703125 -1.703125 C 28.960938 -0.179688 25.828125 0.578125 22.296875 0.578125 Z M 22.296875 -3.84375 C 26.523438 -3.84375 29.769531 -5.160156 32.03125 -7.796875 C 34.289062 -10.441406 35.421875 -14.617188 35.421875 -20.328125 C 35.421875 -26.035156 34.289062 -30.207031 32.03125 -32.84375 C 29.769531 -35.488281 26.523438 -36.8125 22.296875 -36.8125 C 13.546875 -36.8125 9.171875 -31.316406 9.171875 -20.328125 C 9.171875 -9.335938 13.546875 -3.84375 22.296875 -3.84375 Z M 22.296875 -3.84375 "/></g></g><g transform="translate(180.640007, 436.021683)"><g><path d="M 32.0625 -24.171875 L 32.0625 -40.65625 L 36.8125 -40.65625 L 36.8125 0 L 32.0625 0 L 32.0625 -20.109375 L 10.921875 -20.109375 L 10.921875 0 L 6.140625 0 L 6.140625 -40.65625 L 10.921875 -40.65625 L 10.921875 -24.171875 Z M 32.0625 -24.171875 "/></g></g><g transform="translate(223.632227, 436.021683)"><g><path d="M 10.921875 0 L 6.140625 0 L 6.140625 -40.65625 L 10.921875 -40.65625 Z M 10.921875 0 "/></g></g><g transform="translate(240.734565, 436.021683)"><g><path d="M 31.734375 -40.65625 L 31.734375 -36.59375 L 19 -36.59375 L 19 0 L 14.234375 0 L 14.234375 -36.59375 L 1.5 -36.59375 L 1.5 -40.65625 Z M 31.734375 -40.65625 "/></g></g><g transform="translate(273.93813, 436.021683)"><g><path d="M 36.59375 0 L 31.484375 0 L 27.71875 -11.15625 L 10.40625 -11.15625 L 6.625 0 L 1.609375 0 L 15.796875 -40.65625 L 22.421875 -40.65625 Z M 18.71875 -35.734375 L 11.734375 -15.15625 L 26.359375 -15.15625 L 19.40625 -35.734375 Z M 18.71875 -35.734375 "/></g></g><g transform="translate(312.147257, 436.021683)"><g><path d="M 10.8125 0 L 6.140625 0 L 6.140625 -40.65625 L 12.015625 -40.65625 L 31.84375 -9.59375 L 32.53125 -9.703125 L 32.53125 -40.65625 L 37.1875 -40.65625 L 37.1875 0 L 32.171875 0 L 11.515625 -33.234375 L 10.8125 -33.125 Z M 10.8125 0 "/></g></g><g transform="translate(355.50099, 436.021683)"><g><path d="M 17.765625 0.578125 C 15.210938 0.578125 12.921875 0.234375 10.890625 -0.453125 C 8.859375 -1.148438 7.164062 -2.0625 5.8125 -3.1875 C 4.457031 -4.320312 3.445312 -5.566406 2.78125 -6.921875 L 5.390625 -10.09375 L 6.09375 -10.09375 C 8.613281 -5.84375 12.503906 -3.71875 17.765625 -3.71875 C 20.828125 -3.71875 23.101562 -4.359375 24.59375 -5.640625 C 26.082031 -6.921875 26.828125 -8.703125 26.828125 -10.984375 C 26.828125 -12.316406 26.582031 -13.445312 26.09375 -14.375 C 25.601562 -15.300781 24.789062 -16.09375 23.65625 -16.75 C 22.53125 -17.414062 20.992188 -17.988281 19.046875 -18.46875 L 14.296875 -19.640625 C 10.753906 -20.484375 8.144531 -21.835938 6.46875 -23.703125 C 4.789062 -25.566406 3.953125 -27.925781 3.953125 -30.78125 C 3.953125 -32.800781 4.46875 -34.601562 5.5 -36.1875 C 6.539062 -37.78125 8.0625 -39.019531 10.0625 -39.90625 C 12.0625 -40.789062 14.453125 -41.234375 17.234375 -41.234375 C 20.296875 -41.234375 22.878906 -40.800781 24.984375 -39.9375 C 27.085938 -39.082031 28.769531 -37.789062 30.03125 -36.0625 L 27.703125 -32.921875 L 27 -32.921875 C 25.832031 -34.347656 24.453125 -35.394531 22.859375 -36.0625 C 21.265625 -36.726562 19.390625 -37.0625 17.234375 -37.0625 C 14.421875 -37.0625 12.296875 -36.515625 10.859375 -35.421875 C 9.421875 -34.328125 8.703125 -32.816406 8.703125 -30.890625 C 8.703125 -29.054688 9.226562 -27.597656 10.28125 -26.515625 C 11.34375 -25.429688 13.125 -24.59375 15.625 -24 L 20.5 -22.828125 C 24.445312 -21.898438 27.304688 -20.476562 29.078125 -18.5625 C 30.847656 -16.644531 31.734375 -14.191406 31.734375 -11.203125 C 31.734375 -8.910156 31.21875 -6.878906 30.1875 -5.109375 C 29.15625 -3.335938 27.59375 -1.945312 25.5 -0.9375 C 23.40625 0.0703125 20.828125 0.578125 17.765625 0.578125 Z M 17.765625 0.578125 "/></g></g><g transform="translate(390.345267, 436.021683)"><g><path d="M 32.0625 -24.171875 L 32.0625 -40.65625 L 36.8125 -40.65625 L 36.8125 0 L 32.0625 0 L 32.0625 -20.109375 L 10.921875 -20.109375 L 10.921875 0 L 6.140625 0 L 6.140625 -40.65625 L 10.921875 -40.65625 L 10.921875 -24.171875 Z M 32.0625 -24.171875 "/></g></g><g transform="translate(433.337487, 436.021683)"><g><path d="M 20.96875 0.578125 C 15.976562 0.578125 12.203125 -0.6875 9.640625 -3.21875 C 7.085938 -5.75 5.8125 -9.492188 5.8125 -14.453125 L 5.8125 -40.65625 L 10.5625 -40.65625 L 10.5625 -14.515625 C 10.5625 -10.953125 11.421875 -8.28125 13.140625 -6.5 C 14.859375 -4.726562 17.46875 -3.84375 20.96875 -3.84375 C 27.90625 -3.84375 31.375 -7.398438 31.375 -14.515625 L 31.375 -40.65625 L 36.125 -40.65625 L 36.125 -14.453125 C 36.125 -9.492188 34.84375 -5.75 32.28125 -3.21875 C 29.726562 -0.6875 25.957031 0.578125 20.96875 0.578125 Z M 20.96875 0.578125 "/></g></g><g transform="translate(475.245168, 436.021683)"><g/></g><g transform="translate(489.205126, 436.021683)"><g><path d="M 19.296875 -40.65625 C 23.410156 -40.65625 26.945312 -39.914062 29.90625 -38.4375 C 32.863281 -36.96875 35.144531 -34.722656 36.75 -31.703125 C 38.351562 -28.679688 39.15625 -24.890625 39.15625 -20.328125 C 39.15625 -15.765625 38.351562 -11.972656 36.75 -8.953125 C 35.144531 -5.929688 32.863281 -3.679688 29.90625 -2.203125 C 26.945312 -0.734375 23.410156 0 19.296875 0 L 6.140625 0 L 6.140625 -40.65625 Z M 18.828125 -4.0625 C 22.222656 -4.0625 25.03125 -4.585938 27.25 -5.640625 C 29.476562 -6.703125 31.164062 -8.425781 32.3125 -10.8125 C 33.457031 -13.207031 34.03125 -16.378906 34.03125 -20.328125 C 34.03125 -24.296875 33.457031 -27.46875 32.3125 -29.84375 C 31.164062 -32.226562 29.476562 -33.945312 27.25 -35 C 25.03125 -36.0625 22.222656 -36.59375 18.828125 -36.59375 L 10.921875 -36.59375 L 10.921875 -4.0625 Z M 18.828125 -4.0625 "/></g></g><g transform="translate(532.419815, 436.021683)"><g><path d="M 32.0625 -24.171875 L 32.0625 -40.65625 L 36.8125 -40.65625 L 36.8125 0 L 32.0625 0 L 32.0625 -20.109375 L 10.921875 -20.109375 L 10.921875 0 L 6.140625 0 L 6.140625 -40.65625 L 10.921875 -40.65625 L 10.921875 -24.171875 Z M 32.0625 -24.171875 "/></g></g><g transform="translate(575.412035, 436.021683)"><g><path d="M 36.59375 0 L 31.484375 0 L 27.71875 -11.15625 L 10.40625 -11.15625 L 6.625 0 L 1.609375 0 L 15.796875 -40.65625 L 22.421875 -40.65625 Z M 18.71875 -35.734375 L 11.734375 -15.15625 L 26.359375 -15.15625 L 19.40625 -35.734375 Z M 18.71875 -35.734375 "/></g></g><g transform="translate(613.621162, 436.021683)"><g><path d="M 6.140625 0 L 6.140625 -40.65625 L 20.90625 -40.65625 C 23.632812 -40.65625 25.925781 -40.203125 27.78125 -39.296875 C 29.632812 -38.398438 31.023438 -37.128906 31.953125 -35.484375 C 32.878906 -33.847656 33.34375 -31.910156 33.34375 -29.671875 C 33.34375 -27.148438 32.710938 -25.066406 31.453125 -23.421875 C 30.191406 -21.785156 28.226562 -20.5625 25.5625 -19.75 L 25.5625 -19.15625 C 26.875 -18.632812 27.945312 -17.816406 28.78125 -16.703125 C 29.613281 -15.597656 30.382812 -13.941406 31.09375 -11.734375 L 34.84375 0 L 29.921875 0 L 25.859375 -12.4375 C 25.378906 -13.894531 24.820312 -15.039062 24.1875 -15.875 C 23.5625 -16.707031 22.765625 -17.3125 21.796875 -17.6875 C 20.835938 -18.0625 19.613281 -18.25 18.125 -18.25 L 10.921875 -18.25 L 10.921875 0 Z M 20.796875 -22.296875 C 23.335938 -22.296875 25.226562 -22.882812 26.46875 -24.0625 C 27.71875 -25.238281 28.34375 -27.035156 28.34375 -29.453125 C 28.34375 -31.859375 27.71875 -33.648438 26.46875 -34.828125 C 25.226562 -36.003906 23.335938 -36.59375 20.796875 -36.59375 L 10.921875 -36.59375 L 10.921875 -22.296875 Z M 20.796875 -22.296875 "/></g></g></g></svg>